# xmcd CD database file
#
# Track frame offsets:
#	150
#	18971
#	45217
#	70355
#	88641
#	104882
#	117026
#	135967
#	158573
#	180274
#	197917
#	219761
#	234062
#
# Disc length: 3472 seconds
#
# Revision: 0
# Processed by: cddbd v1.4PL0 Copyright (c) Steve Scherf et al.
# Submitted via: CDex 1.50Beta7
#
DISCID=970d8e0d
DTITLE=Eva Cassidy - Live at Blues Alley
DYEAR=1900
DGENRE=Blues
TTITLE0=Cheek to Cheek
TTITLE1=Stormy Monday
TTITLE2=Bridge Over Troubled Water
TTITLE3=Fine and Mellow
TTITLE4=People Get Ready
TTITLE5=Blue Skies
TTITLE6=Tall Trees in Georgia
TTITLE7=Fields of Gold
TTITLE8=Autumn Leaves
TTITLE9=Honeysuckle Rose
TTITLE10=Take Me to the River
TTITLE11=What a Wonderful World
TTITLE12=Oh, Had I a Golden Thread
EXTD=
EXTT0=
EXTT1=
EXTT2=
EXTT3=
EXTT4=
EXTT5=
EXTT6=
EXTT7=
EXTT8=
EXTT9=
EXTT10=
EXTT11=
EXTT12=
PLAYORDER=
